<?xml version="1.0" encoding="utf-8"?>
<!-- Generator: Adobe Illustrator 15.0.0, SVG Export Plug-In . SVG Version: 6.00 Build 0)  -->
<!DOCTYPE svg PUBLIC "-//W3C//DTD SVG 1.1 Tiny//EN" "http://www.w3.org/Graphics/SVG/1.1/DTD/svg11-tiny.dtd">
<svg version="1.1" baseProfile="tiny" id="Layer_1" xmlns="http://www.w3.org/2000/svg" xmlns:xlink="http://www.w3.org/1999/xlink"
	 x="0px" y="0px" width="180px" height="80px" viewBox="0 0 180 80" xml:space="preserve">
<g>
	<polyline fill-rule="evenodd" stroke="#FFFFFF" points="23.329,73.323 23.329,32.022 66.251,32.022 66.251,73.323 23.329,73.323 	
		"/>
	
		<line fill="none" stroke="#FFFFFF" stroke-width="0.2835" stroke-linecap="round" stroke-linejoin="round" stroke-miterlimit="3" x1="37.637" y1="65.063" x2="23.329" y2="56.803"/>
	
		<line fill="none" stroke="#FFFFFF" stroke-width="0.2835" stroke-linecap="round" stroke-linejoin="round" stroke-miterlimit="3" x1="66.251" y1="48.543" x2="51.944" y2="40.282"/>
	
		<line fill="none" stroke="#FFFFFF" stroke-width="0.2835" stroke-linecap="round" stroke-linejoin="round" stroke-miterlimit="3" x1="37.637" y1="48.543" x2="51.944" y2="40.282"/>
	
		<line fill="none" stroke="#FFFFFF" stroke-width="0.2835" stroke-linecap="round" stroke-linejoin="round" stroke-miterlimit="3" x1="37.637" y1="65.063" x2="37.637" y2="73.323"/>
	
		<line fill="none" stroke="#FFFFFF" stroke-width="0.2835" stroke-linecap="round" stroke-linejoin="round" stroke-miterlimit="3" x1="51.944" y1="40.282" x2="37.637" y2="32.022"/>
	
		<line fill="none" stroke="#FFFFFF" stroke-width="0.2835" stroke-linecap="round" stroke-linejoin="round" stroke-miterlimit="3" x1="23.329" y1="40.282" x2="37.637" y2="32.022"/>
	
		<line fill="none" stroke="#FFFFFF" stroke-width="0.2835" stroke-linecap="round" stroke-linejoin="round" stroke-miterlimit="3" x1="51.944" y1="40.282" x2="51.944" y2="56.803"/>
	
		<line fill="none" stroke="#FFFFFF" stroke-width="0.2835" stroke-linecap="round" stroke-linejoin="round" stroke-miterlimit="3" x1="66.251" y1="65.063" x2="51.944" y2="56.803"/>
	
		<line fill="none" stroke="#FFFFFF" stroke-width="0.2835" stroke-linecap="round" stroke-linejoin="round" stroke-miterlimit="3" x1="37.637" y1="65.063" x2="51.944" y2="56.803"/>
	
		<line fill="none" stroke="#FFFFFF" stroke-width="0.2835" stroke-linecap="round" stroke-linejoin="round" stroke-miterlimit="3" x1="51.944" y1="32.022" x2="51.944" y2="40.282"/>
	
		<path fill="none" stroke="#FFFFFF" stroke-width="0.2835" stroke-linecap="round" stroke-linejoin="round" stroke-miterlimit="3" d="
		M37.637,48.543l-14.308-8.261 M37.637,65.063V48.543 M23.329,73.323l14.308-8.26"/>
	
		<path fill="none" stroke="#FFFFFF" stroke-width="0.2835" stroke-linecap="round" stroke-linejoin="round" stroke-miterlimit="3" d="
		M51.944,73.323l-14.307-8.26 M66.251,65.063l-14.307,8.26 M51.944,56.803l14.307,8.261 M37.637,65.063l14.307-8.261"/>
	
		<path fill="none" stroke="#FFFFFF" stroke-width="0.2835" stroke-linecap="round" stroke-linejoin="round" stroke-miterlimit="3" d="
		M51.944,40.282l14.307-8.26 M66.251,48.543l-14.307-8.261"/>
</g>
<g>
	<path fill="none" d="M102.53,22.37c0-0.436-0.147-0.753-0.443-0.951c-0.295-0.198-0.756-0.297-1.383-0.297h-1.297v2.485h1.265
		c0.634,0.007,1.102-0.089,1.404-0.287C102.379,23.123,102.53,22.806,102.53,22.37z"/>
	<path fill="none" d="M27.375,22.37c0-0.436-0.147-0.753-0.443-0.951s-0.756-0.297-1.383-0.297h-1.297v2.485h1.264
		c0.634,0.007,1.102-0.089,1.405-0.287C27.224,23.123,27.375,22.806,27.375,22.37z"/>
	<path fill="none" d="M155.054,22.37c0-0.436-0.148-0.753-0.443-0.951c-0.296-0.198-0.757-0.297-1.383-0.297h-1.297v2.485h1.265
		c0.634,0.007,1.102-0.089,1.404-0.287C154.902,23.123,155.054,22.806,155.054,22.37z"/>
	<path fill="none" d="M79.049,22.37c0-0.436-0.147-0.753-0.443-0.951s-0.756-0.297-1.383-0.297h-1.296v2.485h1.264
		c0.634,0.007,1.102-0.089,1.405-0.287C78.897,23.123,79.049,22.806,79.049,22.37z"/>
	<path fill="none" d="M-35-66v167.244h249.449V-66H-35z M27.364,28.123l-2.788-3.608h-0.324v3.608h-0.929v-7.909h1.621
		c0.864,0,1.458,0.038,1.783,0.114c0.324,0.075,0.605,0.203,0.843,0.383c0.238,0.181,0.425,0.413,0.562,0.697
		c0.137,0.284,0.205,0.6,0.205,0.945c0,0.655-0.223,1.18-0.67,1.572s-1.091,0.589-1.934,0.589l2.798,3.608H27.364z M33.398,28.123
		h-0.929v-7.909h0.929V28.123z M41.365,28.318c-1.253,0-2.28-0.396-3.079-1.188c-0.8-0.793-1.199-1.794-1.199-3.004
		c0-0.749,0.185-1.44,0.556-2.075c0.371-0.634,0.884-1.131,1.54-1.491c0.656-0.359,1.363-0.54,2.124-0.54
		c0.76,0,1.44,0.146,2.042,0.438c0.602,0.292,1.104,0.719,1.507,1.28l-0.713,0.552c-0.75-0.908-1.675-1.361-2.777-1.361
		c-0.9,0-1.676,0.316-2.328,0.95c-0.652,0.634-0.978,1.41-0.978,2.329c0,0.918,0.319,1.686,0.957,2.301
		c0.637,0.616,1.464,0.924,2.479,0.924s1.898-0.436,2.647-1.307l0.724,0.551C44.016,27.771,42.849,28.318,41.365,28.318z
		 M54.563,28.123h-0.929v-3.749h-3.792v3.749h-0.94v-7.909h0.94v3.253h3.792v-3.253h0.929V28.123z M62.25,21.122h-1.729v7.001h-0.94
		v-7.001h-1.74v-0.908h4.409V21.122z M70.909,21.133h-3.674v2.269h3.641v0.908h-3.641v2.896h3.641v0.918h-4.57v-7.909h4.603V21.133z
		 M79.038,28.123l-2.788-3.608h-0.324v3.608h-0.929v-7.909h1.621c0.864,0,1.458,0.038,1.783,0.114
		c0.324,0.075,0.605,0.203,0.843,0.383c0.238,0.181,0.425,0.413,0.562,0.697s0.206,0.6,0.206,0.945c0,0.655-0.224,1.18-0.67,1.572
		c-0.447,0.393-1.091,0.589-1.935,0.589l2.799,3.608H79.038z M86.703,25.282h-3.047v-0.8h3.047V25.282z M94.39,21.122h-1.729v7.001
		h-0.94v-7.001h-1.739v-0.908h4.408V21.122z M102.52,28.123l-2.788-3.608h-0.324v3.608h-0.929v-7.909h1.62
		c0.865,0,1.459,0.038,1.783,0.114c0.324,0.075,0.605,0.203,0.843,0.383c0.237,0.181,0.425,0.413,0.562,0.697s0.206,0.6,0.206,0.945
		c0,0.655-0.224,1.18-0.67,1.572c-0.447,0.393-1.092,0.589-1.935,0.589l2.799,3.608H102.52z M113.048,24.969
		c0,0.799-0.081,1.413-0.243,1.842s-0.45,0.787-0.864,1.075c-0.415,0.288-0.898,0.433-1.453,0.433c-0.439,0-0.836-0.07-1.188-0.211
		c-0.354-0.141-0.647-0.339-0.881-0.595c-0.234-0.255-0.402-0.54-0.503-0.854s-0.151-0.877-0.151-1.69v-4.755h0.93v4.755
		c0,0.512,0.015,0.88,0.043,1.107c0.029,0.227,0.111,0.446,0.249,0.659c0.137,0.212,0.333,0.382,0.589,0.508
		c0.255,0.126,0.545,0.188,0.869,0.188c0.39,0,0.726-0.113,1.011-0.34c0.284-0.227,0.468-0.49,0.551-0.789s0.124-0.743,0.124-1.334
		v-4.755h0.919V24.969z M124.732,28.123l-0.735-5.381l-2.657,5.381h-0.281l-2.69-5.424l-0.735,5.424h-0.896l1.124-7.909h0.227
		l3.112,6.278l3.09-6.278h0.227l1.135,7.909H124.732z M137.335,28.123l-0.734-5.381l-2.658,5.381h-0.281l-2.69-5.424l-0.734,5.424
		h-0.896l1.123-7.909h0.228l3.111,6.278l3.091-6.278h0.227l1.135,7.909H137.335z M146.913,21.133h-3.674v2.269h3.642v0.908h-3.642
		v2.896h3.642v0.918h-4.571v-7.909h4.604V21.133z M155.043,28.123l-2.788-3.608h-0.324v3.608h-0.929v-7.909h1.62
		c0.864,0,1.459,0.038,1.783,0.114c0.324,0.075,0.604,0.203,0.843,0.383c0.237,0.181,0.425,0.413,0.562,0.697s0.205,0.6,0.205,0.945
		c0,0.655-0.223,1.18-0.67,1.572c-0.446,0.393-1.091,0.589-1.934,0.589l2.798,3.608H155.043z"/>
	<polygon points="89.981,21.122 91.721,21.122 91.721,28.123 92.661,28.123 92.661,21.122 94.39,21.122 94.39,20.214 89.981,20.214 
			"/>
	<path d="M112.129,24.969c0,0.591-0.041,1.035-0.124,1.334s-0.267,0.563-0.551,0.789c-0.285,0.227-0.621,0.34-1.011,0.34
		c-0.324,0-0.614-0.063-0.869-0.188c-0.256-0.126-0.452-0.296-0.589-0.508c-0.138-0.213-0.22-0.433-0.249-0.659
		c-0.028-0.228-0.043-0.596-0.043-1.107v-4.755h-0.93v4.755c0,0.813,0.051,1.377,0.151,1.69s0.269,0.599,0.503,0.854
		c0.233,0.256,0.527,0.454,0.881,0.595c0.353,0.141,0.749,0.211,1.188,0.211c0.555,0,1.038-0.145,1.453-0.433
		c0.414-0.288,0.702-0.646,0.864-1.075s0.243-1.043,0.243-1.842v-4.755h-0.919V24.969z"/>
	<path d="M102.822,23.926c0.446-0.393,0.67-0.917,0.67-1.572c0-0.346-0.069-0.661-0.206-0.945s-0.324-0.517-0.562-0.697
		c-0.237-0.18-0.519-0.308-0.843-0.383c-0.324-0.076-0.918-0.114-1.783-0.114h-1.62v7.909h0.929v-3.608h0.324l2.788,3.608h1.167
		l-2.799-3.608C101.73,24.515,102.375,24.318,102.822,23.926z M99.407,23.607v-2.485h1.297c0.627,0,1.088,0.099,1.383,0.297
		c0.296,0.198,0.443,0.516,0.443,0.951s-0.151,0.753-0.454,0.95c-0.303,0.198-0.771,0.294-1.404,0.287H99.407z"/>
	<polygon points="124.289,20.214 121.199,26.492 118.087,20.214 117.86,20.214 116.736,28.123 117.633,28.123 118.368,22.699 
		121.059,28.123 121.34,28.123 123.997,22.742 124.732,28.123 125.65,28.123 124.516,20.214 	"/>
	<path d="M155.345,23.926c0.447-0.393,0.67-0.917,0.67-1.572c0-0.346-0.068-0.661-0.205-0.945s-0.324-0.517-0.562-0.697
		c-0.238-0.18-0.519-0.308-0.843-0.383c-0.324-0.076-0.919-0.114-1.783-0.114h-1.62v7.909h0.929v-3.608h0.324l2.788,3.608h1.166
		l-2.798-3.608C154.254,24.515,154.898,24.318,155.345,23.926z M151.931,23.607v-2.485h1.297c0.626,0,1.087,0.099,1.383,0.297
		c0.295,0.198,0.443,0.516,0.443,0.951s-0.151,0.753-0.454,0.95c-0.303,0.198-0.771,0.294-1.404,0.287H151.931z"/>
	<polygon points="142.31,28.123 146.881,28.123 146.881,27.205 143.239,27.205 143.239,24.31 146.881,24.31 146.881,23.401 
		143.239,23.401 143.239,21.133 146.913,21.133 146.913,20.214 142.31,20.214 	"/>
	<polygon points="136.893,20.214 133.802,26.492 130.69,20.214 130.463,20.214 129.34,28.123 130.236,28.123 130.971,22.699 
		133.661,28.123 133.942,28.123 136.601,22.742 137.335,28.123 138.254,28.123 137.119,20.214 	"/>
	<rect x="32.469" y="20.214" width="0.929" height="7.909"/>
	<path d="M41.495,27.432c-1.016,0-1.842-0.308-2.479-0.924c-0.638-0.615-0.957-1.383-0.957-2.301c0-0.919,0.326-1.695,0.978-2.329
		c0.652-0.634,1.428-0.95,2.328-0.95c1.103,0,2.028,0.453,2.777,1.361l0.713-0.552c-0.403-0.562-0.906-0.988-1.507-1.28
		c-0.602-0.291-1.282-0.438-2.042-0.438c-0.76,0-1.468,0.181-2.124,0.54c-0.655,0.36-1.168,0.857-1.54,1.491
		c-0.371,0.635-0.556,1.326-0.556,2.075c0,1.21,0.399,2.211,1.199,3.004c0.799,0.792,1.826,1.188,3.079,1.188
		c1.484,0,2.651-0.548,3.501-1.643l-0.724-0.551C43.393,26.996,42.511,27.432,41.495,27.432z"/>
	<path d="M27.667,23.926c0.447-0.393,0.67-0.917,0.67-1.572c0-0.346-0.068-0.661-0.205-0.945c-0.137-0.284-0.324-0.517-0.562-0.697
		c-0.238-0.18-0.519-0.308-0.843-0.383c-0.324-0.076-0.918-0.114-1.783-0.114h-1.621v7.909h0.929v-3.608h0.324l2.788,3.608h1.167
		l-2.798-3.608C26.576,24.515,27.22,24.318,27.667,23.926z M24.252,23.607v-2.485h1.297c0.626,0,1.087,0.099,1.383,0.297
		s0.443,0.516,0.443,0.951s-0.151,0.753-0.454,0.95c-0.303,0.198-0.771,0.294-1.405,0.287H24.252z"/>
	<polygon points="53.633,23.467 49.841,23.467 49.841,20.214 48.901,20.214 48.901,28.123 49.841,28.123 49.841,24.374 
		53.633,24.374 53.633,28.123 54.563,28.123 54.563,20.214 53.633,20.214 	"/>
	<polygon points="66.306,28.123 70.876,28.123 70.876,27.205 67.235,27.205 67.235,24.31 70.876,24.31 70.876,23.401 67.235,23.401 
		67.235,21.133 70.909,21.133 70.909,20.214 66.306,20.214 	"/>
	<polygon points="57.841,21.122 59.581,21.122 59.581,28.123 60.521,28.123 60.521,21.122 62.25,21.122 62.25,20.214 57.841,20.214 
			"/>
	<path d="M79.341,23.926c0.446-0.393,0.67-0.917,0.67-1.572c0-0.346-0.069-0.661-0.206-0.945s-0.324-0.517-0.562-0.697
		c-0.237-0.18-0.519-0.308-0.843-0.383c-0.324-0.076-0.918-0.114-1.783-0.114h-1.621v7.909h0.929v-3.608h0.324l2.788,3.608h1.167
		l-2.799-3.608C78.25,24.515,78.894,24.318,79.341,23.926z M75.926,23.607v-2.485h1.296c0.627,0,1.088,0.099,1.383,0.297
		s0.443,0.516,0.443,0.951s-0.151,0.753-0.454,0.95c-0.303,0.198-0.771,0.294-1.405,0.287H75.926z"/>
	<rect x="83.656" y="24.482" width="3.047" height="0.8"/>
</g>
<g>
	<path fill="none" d="M49.896,10.835c0-0.418-0.141-0.722-0.421-0.912c-0.281-0.189-0.716-0.284-1.304-0.284h-1.245v2.392h1.216
		c0.601,0.007,1.044-0.086,1.329-0.279C49.753,11.56,49.896,11.254,49.896,10.835z"/>
	<polygon fill="none" points="61.667,12.875 64.069,12.875 62.873,10.228 	"/>
	<polygon fill="none" points="37.23,12.875 39.632,12.875 38.436,10.228 	"/>
	<path fill="none" d="M-35-66v167.244h249.449V-66H-35z M30.575,15.993l-0.687-5.04l-2.49,5.04h-0.176l-2.52-5.079l-0.687,5.079
		h-0.676l1-7.04h0.108l2.863,5.775l2.843-5.775h0.108l1.01,7.04H30.575z M41.054,15.993l-1.108-2.402h-3.04l-1.098,2.402h-0.785
		l3.324-7.324h0.177l3.284,7.324H41.054z M49.856,15.993l-2.53-3.275h-0.402v3.275h-0.706v-7.04h1.402
		c0.784,0,1.32,0.035,1.608,0.103c0.287,0.069,0.534,0.182,0.74,0.338c0.206,0.157,0.368,0.359,0.485,0.608
		c0.117,0.249,0.176,0.523,0.176,0.824c0,0.601-0.212,1.073-0.637,1.417c-0.425,0.343-1.026,0.502-1.804,0.476l2.54,3.275H49.856z
		 M55.708,15.993h-0.706v-7.04h0.706V15.993z M65.49,15.993l-1.108-2.402h-3.039l-1.098,2.402H59.46l3.324-7.324h0.177l3.285,7.324
		H65.49z"/>
	<path d="M38.348,8.668l-3.324,7.324h0.785l1.098-2.402h3.04l1.108,2.402h0.755l-3.284-7.324H38.348z M37.23,12.875l1.206-2.647
		l1.196,2.647H37.23z"/>
	<rect x="55.001" y="8.953" width="0.706" height="7.04"/>
	<path d="M62.784,8.668l-3.324,7.324h0.785l1.098-2.402h3.039l1.108,2.402h0.755l-3.285-7.324H62.784z M61.667,12.875l1.206-2.647
		l1.196,2.647H61.667z"/>
	<path d="M49.994,12.242c0.425-0.343,0.637-0.815,0.637-1.417c0-0.301-0.059-0.575-0.176-0.824c-0.118-0.249-0.28-0.451-0.485-0.608
		c-0.206-0.157-0.453-0.27-0.74-0.338c-0.288-0.068-0.824-0.103-1.608-0.103h-1.402v7.04h0.706v-3.275h0.402l2.53,3.275h0.873
		l-2.54-3.275C48.967,12.744,49.568,12.585,49.994,12.242z M46.925,12.031V9.639h1.245c0.588,0,1.023,0.095,1.304,0.284
		c0.281,0.19,0.421,0.494,0.421,0.912s-0.142,0.724-0.426,0.917c-0.285,0.193-0.728,0.286-1.329,0.279H46.925z"/>
	<polygon points="30.153,8.953 27.31,14.728 24.447,8.953 24.339,8.953 23.339,15.993 24.015,15.993 24.702,10.914 27.222,15.993 
		27.398,15.993 29.888,10.953 30.575,15.993 31.271,15.993 30.261,8.953 	"/>
</g>
<g>
	<path fill="none" d="M84.404,34.206c0-0.418-0.141-0.723-0.421-0.912c-0.281-0.189-0.716-0.284-1.304-0.284h-1.245v2.393h1.216
		c0.602,0.006,1.044-0.087,1.329-0.279C84.262,34.93,84.404,34.624,84.404,34.206z"/>
	<polygon fill="none" points="72.358,36.245 74.76,36.245 73.564,33.598 	"/>
	<path fill="none" d="M154.687,34.206c0-0.418-0.141-0.723-0.422-0.912c-0.28-0.189-0.715-0.284-1.304-0.284h-1.245v2.393h1.216
		c0.602,0.006,1.044-0.087,1.328-0.279C154.545,34.93,154.687,34.624,154.687,34.206z"/>
	<path fill="none" d="M-35-66v167.244h249.449V-66H-35z M76.182,39.363l-1.108-2.402h-3.039l-1.098,2.402h-0.785l3.324-7.324h0.177
		l3.285,7.324H76.182z M84.365,39.363l-2.529-3.275h-0.402v3.275h-0.706v-7.04h1.402c0.784,0,1.32,0.034,1.608,0.104
		c0.288,0.068,0.534,0.181,0.74,0.338s0.368,0.359,0.485,0.607c0.118,0.249,0.176,0.523,0.176,0.824
		c0,0.602-0.212,1.073-0.637,1.417c-0.425,0.343-1.026,0.501-1.804,0.475l2.539,3.275H84.365z M90.297,38.015
		c0.591,0.572,1.332,0.858,2.221,0.858c0.993,0,1.82-0.386,2.48-1.157l0.549,0.422c-0.347,0.457-0.784,0.806-1.313,1.044
		c-0.53,0.238-1.115,0.358-1.756,0.358c-1.117,0-2.033-0.354-2.745-1.06c-0.713-0.706-1.069-1.598-1.069-2.677
		c0-0.666,0.165-1.282,0.495-1.848s0.788-1.009,1.373-1.329c0.584-0.319,1.214-0.48,1.887-0.48c0.674,0,1.278,0.128,1.814,0.383
		c0.535,0.255,0.974,0.621,1.313,1.098l-0.549,0.422c-0.654-0.811-1.494-1.216-2.521-1.216c-0.836,0-1.557,0.294-2.162,0.883
		c-0.604,0.588-0.907,1.309-0.907,2.162C89.41,36.73,89.706,37.443,90.297,38.015z M104.289,39.363h-0.705v-3.402h-3.579v3.402
		h-0.716v-7.04h0.716v2.951h3.579v-2.951h0.705V39.363z M108.648,39.363h-0.706v-7.04h0.706V39.363z M115.566,33.01h-1.568v6.354
		h-0.716V33.01h-1.578v-0.687h3.862V33.01z M123.367,33.02h-3.334v2.196h3.305v0.687h-3.305v2.765h3.305v0.696h-4.01v-7.04h4.039
		V33.02z M130.933,39.363l-3.089-3.285v3.285h-0.726v-7.04h0.726v2.638l2.804-2.638h0.951l-3.382,3.157l3.646,3.883H130.933z
		 M138.782,33.01h-1.569v6.354h-0.716V33.01h-1.578v-0.687h3.863V33.01z M147.22,36.568c0,0.713-0.072,1.259-0.216,1.638
		s-0.397,0.696-0.76,0.951c-0.363,0.255-0.789,0.383-1.279,0.383c-0.393,0-0.745-0.064-1.06-0.191
		c-0.313-0.128-0.575-0.306-0.784-0.534c-0.209-0.229-0.354-0.484-0.437-0.766c-0.081-0.28-0.122-0.774-0.122-1.48v-4.245h0.706
		v4.245c0,0.438,0.011,0.769,0.034,0.99c0.022,0.223,0.102,0.437,0.235,0.643s0.322,0.369,0.563,0.49
		c0.242,0.121,0.502,0.182,0.779,0.182c0.278,0,0.521-0.051,0.73-0.152s0.386-0.243,0.529-0.427c0.145-0.183,0.244-0.384,0.3-0.603
		s0.083-0.593,0.083-1.123v-4.245h0.696V36.568z M154.647,39.363l-2.529-3.275h-0.402v3.275h-0.706v-7.04h1.402
		c0.784,0,1.32,0.034,1.607,0.104c0.288,0.068,0.535,0.181,0.74,0.338c0.206,0.157,0.368,0.359,0.485,0.607
		c0.118,0.249,0.177,0.523,0.177,0.824c0,0.602-0.212,1.073-0.637,1.417c-0.426,0.343-1.026,0.501-1.805,0.475l2.54,3.275H154.647z"
		/>
	<path d="M84.502,35.613c0.425-0.344,0.637-0.815,0.637-1.417c0-0.301-0.059-0.575-0.176-0.824c-0.118-0.248-0.279-0.45-0.485-0.607
		s-0.453-0.27-0.74-0.338c-0.288-0.069-0.824-0.104-1.608-0.104h-1.402v7.04h0.706v-3.275h0.402l2.529,3.275h0.873l-2.539-3.275
		C83.476,36.114,84.077,35.956,84.502,35.613z M81.433,35.402V33.01h1.245c0.588,0,1.023,0.095,1.304,0.284
		c0.281,0.189,0.421,0.494,0.421,0.912s-0.142,0.724-0.426,0.917c-0.284,0.192-0.727,0.285-1.329,0.279H81.433z"/>
	<polygon points="134.919,33.01 136.497,33.01 136.497,39.363 137.213,39.363 137.213,33.01 138.782,33.01 138.782,32.323 
		134.919,32.323 	"/>
	<polygon points="119.328,39.363 123.338,39.363 123.338,38.667 120.033,38.667 120.033,35.902 123.338,35.902 123.338,35.216 
		120.033,35.216 120.033,33.02 123.367,33.02 123.367,32.323 119.328,32.323 	"/>
	<polygon points="131.599,32.323 130.647,32.323 127.844,34.961 127.844,32.323 127.118,32.323 127.118,39.363 127.844,39.363 
		127.844,36.078 130.933,39.363 131.863,39.363 128.217,35.48 	"/>
	<path d="M154.785,35.613c0.425-0.344,0.637-0.815,0.637-1.417c0-0.301-0.059-0.575-0.177-0.824
		c-0.117-0.248-0.279-0.45-0.485-0.607c-0.205-0.157-0.452-0.27-0.74-0.338c-0.287-0.069-0.823-0.104-1.607-0.104h-1.402v7.04h0.706
		v-3.275h0.402l2.529,3.275h0.873l-2.54-3.275C153.759,36.114,154.359,35.956,154.785,35.613z M151.716,35.402V33.01h1.245
		c0.589,0,1.023,0.095,1.304,0.284c0.281,0.189,0.422,0.494,0.422,0.912s-0.142,0.724-0.427,0.917
		c-0.284,0.192-0.727,0.285-1.328,0.279H151.716z"/>
	<path d="M146.523,36.568c0,0.53-0.027,0.904-0.083,1.123s-0.155,0.42-0.3,0.603c-0.144,0.184-0.32,0.325-0.529,0.427
		s-0.452,0.152-0.73,0.152c-0.277,0-0.537-0.061-0.779-0.182c-0.241-0.121-0.43-0.284-0.563-0.49s-0.213-0.42-0.235-0.643
		c-0.023-0.222-0.034-0.552-0.034-0.99v-4.245h-0.706v4.245c0,0.706,0.041,1.2,0.122,1.48c0.082,0.281,0.228,0.536,0.437,0.766
		c0.209,0.229,0.471,0.406,0.784,0.534c0.314,0.127,0.667,0.191,1.06,0.191c0.49,0,0.916-0.128,1.279-0.383
		c0.362-0.255,0.616-0.572,0.76-0.951s0.216-0.925,0.216-1.638v-4.245h-0.696V36.568z"/>
	<rect x="107.942" y="32.323" width="0.706" height="7.04"/>
	<polygon points="103.584,35.274 100.005,35.274 100.005,32.323 99.289,32.323 99.289,39.363 100.005,39.363 100.005,35.961 
		103.584,35.961 103.584,39.363 104.289,39.363 104.289,32.323 103.584,32.323 	"/>
	<path d="M92.479,32.833c1.026,0,1.866,0.405,2.521,1.216l0.549-0.422c-0.34-0.477-0.778-0.843-1.313-1.098
		c-0.536-0.255-1.141-0.383-1.814-0.383c-0.673,0-1.303,0.161-1.887,0.48c-0.585,0.32-1.042,0.764-1.373,1.329
		s-0.495,1.182-0.495,1.848c0,1.079,0.356,1.971,1.069,2.677c0.712,0.706,1.627,1.06,2.745,1.06c0.641,0,1.226-0.12,1.756-0.358
		c0.529-0.238,0.967-0.587,1.313-1.044l-0.549-0.422c-0.66,0.771-1.487,1.157-2.48,1.157c-0.89,0-1.63-0.286-2.221-0.858
		c-0.592-0.571-0.887-1.284-0.887-2.137c0-0.854,0.302-1.574,0.907-2.162C90.921,33.127,91.643,32.833,92.479,32.833z"/>
	<polygon points="111.704,33.01 113.282,33.01 113.282,39.363 113.998,39.363 113.998,33.01 115.566,33.01 115.566,32.323 
		111.704,32.323 	"/>
	<path d="M73.476,32.039l-3.324,7.324h0.785l1.098-2.402h3.039l1.108,2.402h0.755l-3.285-7.324H73.476z M72.358,36.245l1.206-2.647
		l1.196,2.647H72.358z"/>
</g>
</svg>

